<svg width="75" height="75" viewBox="0 0 75 75" fill="none" xmlns="http://www.w3.org/2000/svg">
<path fill-rule="evenodd" clip-rule="evenodd" d="M37.5 75C58.2107 75 75 58.2107 75 37.5C75 16.7893 58.2107 -7.33885e-07 37.5 -1.63918e-06L37.5 75Z" fill="#1A73E8"/>
<path fill-rule="evenodd" clip-rule="evenodd" d="M37.5 -1.63918e-06C16.7893 -7.33885e-07 -2.54447e-06 16.7893 -1.63918e-06 37.5C-7.33885e-07 58.2107 16.7893 75 37.5 75L37.5 -1.63918e-06Z" fill="#EDE4E4"/>
<path fill-rule="evenodd" clip-rule="evenodd" d="M37.5 9C21.7599 9 9.00001 21.7599 9 37.5C9 53.2401 21.7599 66 37.5 66L37.5 9Z" fill="#1A73E8"/>
<path fill-rule="evenodd" clip-rule="evenodd" d="M37.5 66C53.2401 66 66 53.2401 66 37.5C66 21.7599 53.2401 9 37.5 9L37.5 66Z" fill="#EDE4E4"/>
</svg>
